<svg xmlns="http://www.w3.org/2000/svg" width="128" height="162" viewBox="0 0 128 162">
  <g fill="none" fill-rule="evenodd">
    <circle cx="64" cy="64" r="64" fill="#E5F7F5"/>
    <text fill="#51534A" font-family="IdealSans-Medium, Ideal Sans" font-size="18" font-weight="400">
      <tspan x="5.734" y="150">Agglomeration</tspan>
    </text>
    <g stroke="#007680" stroke-linecap="round" stroke-linejoin="round" stroke-width="4" transform="translate(31.923 32)">
      <path d="M57.4246737,16.9740351 L57.4246737,16.9456842 C61.280393,13.061614 61.280393,6.82442105 57.3963228,2.96870175 C53.5122526,-0.915368421 47.2750596,-0.915368421 43.4193404,2.96870175 L22.4425263,23.92 L22.4141754,23.92 C20.5997193,25.7061053 19.4089825,28.0592281 19.0404211,30.610807 L18.1898947,36.4794386 L13.9939649,40.6470175 L13.965614,40.6470175 C13.1717895,41.4124912 13.1717895,42.6599298 13.965614,43.4254035 L16.744,46.2037895 L16.7156491,46.1754386 C17.4811228,46.9409123 18.7285614,46.9409123 19.4940351,46.1754386 L23.661614,41.9795088 L29.5302456,41.1289825 L29.5302456,41.1006316 C32.0534737,40.7320702 34.4065965,39.5413333 36.2210526,37.7268772 L57.4246737,16.9740351 Z"/>
      <line x1="32.28" x2="57.428" y1="2.997" y2="28.144"/>
      <line x1="26.695" x2="39.255" y1="33.729" y2="21.17"/>
      <path d="M9.2877193,50.1445614 L5.48303158,57.7142456 L5.4546807,57.7142456 C4.63250526,59.3302456 4.94436491,61.314807 6.24850526,62.6189474 L6.24850526,62.6189474 L6.24850526,62.6189474 C7.89285614,64.2632982 10.5861895,64.2632982 12.2588912,62.6189474 C12.2588912,62.5905965 12.2588912,62.5905965 12.2588912,62.5905965 L12.2588912,62.5905965 L12.2588912,62.5622456 C13.5346807,61.2581053 13.8465404,59.2735439 13.0527158,57.629193 L9.2877193,50.1445614 Z"/>
    </g>
  </g>
</svg>
