<svg xmlns="http://www.w3.org/2000/svg" width="128" height="185" viewBox="0 0 128 185">
  <g fill="none" fill-rule="evenodd">
    <circle cx="64" cy="64" r="64" fill="#E5F7F5"/>
    <text fill="#51534A" font-family="IdealSans-Medium, Ideal Sans" font-size="18" font-weight="400">
      <tspan x="37.162" y="150">Aroma </tspan> <tspan x="10.954" y="174">Recuperation</tspan>
    </text>
    <g stroke="#007680" stroke-linecap="round" stroke-linejoin="round" stroke-width="4" transform="translate(31.923 32)">
      <path d="M21.9111111 0C17.6444444 4.26666667 26.1777778 6.4 21.9111111 10.6666667M32.5777778 0C28.3111111 4.26666667 36.8444444 6.4 32.5777778 10.6666667M43.2444444 0C38.9777778 4.26666667 47.5111111 6.4 43.2444444 10.6666667M50.6058667 44.8284444C57.7994667 46.7626667 62.4387556 49.8346667 62.4387556 53.3333333 62.4387556 59.2213333 49.0698667 64 32.5720889 64 16.0743111 64 2.70542222 59.2213333 2.70542222 53.3333333 2.70542222 49.8602667 7.3504 46.7911111 14.5411556 44.8284444"/>
      <path d="M13.3777778,27.7333333 C11.2444444,42.6666667 16.7342222,49.0666667 16.7342222,49.0666667 C17.616,51.2 23.8168889,55.4666667 32.5578667,55.4666667 C41.2903111,55.4666667 47.4912,51.2 48.3729778,49.0666667 C48.3729778,49.0666667 53.8627556,42.6666667 51.7294222,27.7333333"/>
      <path d="M32.5777778,19.2 C21.9739106,19.2 13.3777778,23.0205035 13.3777778,27.7333333 C13.3777778,32.4461632 21.9739106,36.2666667 32.5777778,36.2666667 C43.181645,36.2666667 51.7777778,32.4461632 51.7777778,27.7333333 C51.7777778,23.0205035 43.181645,19.2 32.5777778,19.2 Z"/>
      <path d="M18.3271111,33.4506667 L19.7777778,32 L19.7493333,32 C23.3333333,29.0133333 27.8844444,27.5057778 32.5208889,27.7048889 L32.4924444,27.7048889 C37.1288889,27.4773333 41.68,28.9848889 45.2924444,31.9431111 L46.7431111,33.3937778"/>
    </g>
  </g>
</svg>
