<svg xmlns="http://www.w3.org/2000/svg" width="128" height="158" viewBox="0 0 128 158">
  <g fill="none" fill-rule="evenodd">
    <circle cx="64" cy="64" r="64" fill="#E5F7F5"/>
    <text fill="#51534A" font-family="IdealSans-Medium, Ideal Sans" font-size="18" font-weight="400">
      <tspan x="1.531" y="150">Coffee Grounds</tspan>
    </text>
    <g stroke="#007680" stroke-linecap="round" stroke-linejoin="round" stroke-width="4" transform="translate(31.923 32)">
      <path d="M25.301551,51.4586122 L25.301551,51.4586122 C23.6601905,49.8172517 21.8773333,48.3739864 19.9529796,47.1288163 L19.9246803,47.100517 C14.0950204,43.4216054 6.39760544,45.1478639 2.71869388,50.9492245 C2.23760544,51.6567075 1.86971429,52.4207891 1.55842177,53.2131701 L1.53012245,53.2131701 C0.42644898,56.6090884 -0.0829387755,60.1748027 0.0302585034,63.740517 L63.7037279,63.740517 C63.7037279,53.1282721 61.5246803,42.317932 51.2973061,38.865415 L51.2690068,38.8371156 C46.4015238,37.1957551 41.0812517,37.8466395 36.7797551,40.5633741 L36.7514558,40.5633741 C30.4124082,44.8931701 25.0355374,50.4398367 20.9038367,56.8920816"/>
      <line x1=".163" x2="12.926" y1="12.926" y2=".163"/>
      <line x1="6.559" x2="25.689" y1="6.559" y2="25.689"/>
      <path d="M26.5467211,39.3153741 L22.4999184,35.2685714 L22.4999184,35.2685714 C20.7170612,33.4857143 20.7170612,30.627483 22.471619,28.8729252 L28.838966,22.4772789 L28.8106667,22.4772789 C30.5652245,20.6944218 33.4234558,20.6944218 35.1780136,22.4489796 L39.196517,26.467483 L39.196517,26.467483 C39.6776054,26.9485714 40.0454966,27.5428571 40.2718912,28.2220408 L41.5736599,32.1839456"/>
    </g>
  </g>
</svg>
