<svg xmlns="http://www.w3.org/2000/svg" width="128" height="162" viewBox="0 0 128 162">
  <g fill="none" fill-rule="evenodd">
    <circle cx="64" cy="64" r="64" fill="#E5F7F5"/>
    <text fill="#51534A" font-family="IdealSans-Medium, Ideal Sans" font-size="18" font-weight="400">
      <tspan x="28.765" y="150">Crushing</tspan>
    </text>
    <g stroke="#007680" stroke-linecap="round" stroke-linejoin="round" stroke-width="4" transform="translate(31.923 32)">
      <polyline points="29.907 .605 21.535 .605 21.535 8.977 13.163 8.977 13.163 17.349"/>
      <polyline points="63.395 34.093 63.395 42.465 55.023 42.465 55.023 50.837 46.651 50.837"/>
      <path d="M34.372093,8.66976744 L34.372093,8.64186047 C35.1813953,7.80465116 36.4930233,7.80465116 37.3302326,8.64186047 C37.4139535,8.7255814 37.4976744,8.8372093 37.5813953,8.94883721 L41.2651163,14.5023256 L41.2372093,14.4744186 C43.3581395,17.6837209 46.1209302,20.4465116 49.3581395,22.5953488 L54.9116279,26.2790698 L54.8837209,26.2511628 C55.8325581,26.8651163 56.0837209,28.1767442 55.4418605,29.1534884 C55.3581395,29.2651163 55.2744186,29.3488372 55.1627907,29.4604651 L42.0186047,42.5767442 L42.0186047,42.5488372 C41.1813953,43.3581395 39.8697674,43.3581395 39.0325581,42.5209302 C38.9209302,42.4093023 38.8372093,42.2976744 38.7534884,42.1860465 L35.0418605,36.6046512 L35.0139535,36.5767442 C32.8651163,33.3395349 30.1023256,30.5767442 26.8651163,28.427907 L21.2837209,24.7162791 L21.255814,24.6883721 C20.2790698,24.0465116 20.027907,22.7348837 20.6697674,21.7581395 C20.7255814,21.6186047 20.8093023,21.5348837 20.9209302,21.4232558 L34.372093,8.66976744 Z"/>
      <line x1=".605" x2="31.581" y1="63.395" y2="32.419"/>
    </g>
  </g>
</svg>
