<svg xmlns="http://www.w3.org/2000/svg" width="128" height="161" viewBox="0 0 128 161">
  <g fill="none" fill-rule="evenodd">
    <circle cx="64" cy="64" r="64" fill="#E5F7F5"/>
    <text fill="#51534A" font-family="IdealSans-Medium, Ideal Sans" font-size="18" font-weight="400">
      <tspan x="16.48" y="150">Evaporation</tspan>
    </text>
    <g stroke="#007680" stroke-linecap="round" stroke-linejoin="round" stroke-width="4" transform="translate(31.923 32)">
      <path d="M15.0302244,29.8787879 L15.0302244,29.8787879 C15.0020202,20.4888889 22.610101,12.8807295 31.9717172,12.8807295 C41.3333333,12.8525253 48.9414141,20.4606061 48.9414141,29.8222222"/>
      <line x1="6.545" x2=".182" y1="29.879" y2="29.879"/>
      <line x1="63.818" x2="57.455" y1="29.879" y2="29.879"/>
      <line x1="32" x2="32" y1=".182" y2="6.545"/>
      <line x1="48.97" x2="53.212" y1="12.909" y2="8.667"/>
      <line x1="15.03" x2="10.788" y1="12.909" y2="8.667"/>
      <path d="M0.181818182,42.6060606 L0.181818182,63.8181818 L63.8181818,63.8181818 L63.8181818,42.6060606 C63.8181818,42.6060606 53.2121212,36.2424242 32,36.2424242 C10.7878788,36.2424242 0.181818182,42.6060606 0.181818182,42.6060606 Z"/>
      <line x1="17.689" x2="4.424" y1="37.289" y2="63.818"/>
      <line x1="25.947" x2="21.394" y1="36.412" y2="63.818"/>
      <line x1="46.311" x2="59.576" y1="37.289" y2="63.818"/>
      <line x1="38.053" x2="42.606" y1="36.412" y2="63.818"/>
    </g>
  </g>
</svg>
