<svg xmlns="http://www.w3.org/2000/svg" width="128" height="186" viewBox="0 0 128 186">
  <g fill="none" fill-rule="evenodd">
    <circle cx="64" cy="64" r="64" fill="#E5F7F5"/>
    <text fill="#51534A" font-family="IdealSans-Medium, Ideal Sans" font-size="18" font-weight="400">
      <tspan x="15.148" y="150">Extraction &amp; </tspan> <tspan x="22.024" y="174">Centrifuge</tspan>
    </text>
    <g stroke="#007680" stroke-linecap="round" stroke-linejoin="round" stroke-width="4" transform="translate(31.923 32)">
      <path d="M61.4177215,59.8164557 C61.4177215,57.4954616 59.536184,55.6139241 57.2151899,55.6139241 L6.78481013,55.6139241 C4.46381599,55.6139241 2.58227848,57.4954616 2.58227848,59.8164557 C2.58227848,62.1374498 4.46381599,64.0189873 6.78481013,64.0189873 L57.2151899,64.0189873 C59.536184,64.0189873 61.4177215,62.1374498 61.4177215,59.8164557 Z"/>
      <polygon points="57.215 55.614 6.785 55.614 6.785 17.791 32 17.791 57.215 17.791"/>
      <line x1="27.797" x2="27.797" y1="26.196" y2="30.399"/>
      <line x1="36.203" x2="36.203" y1="26.196" y2="30.399"/>
      <path d="M42.5063291 38.8037612C42.5063291 44.6060928 42.5063291 53.5126582 32 53.5126582 23.5949367 53.5126582 22.9897722 45.9621097 21.82427 41.4289789 21.6627669 40.7972512 21.8032745 40.1263425 22.2046918 39.6125066 22.606109 39.0986706 23.2230713 38.7999763 23.8751055 38.8037612L42.5063291 38.8037612zM42.5063291 38.8037975L42.5063291 38.8037975C45.9878203 38.8037975 48.8101266 41.6261037 48.8101266 45.1075949L48.8101266 45.1075949"/>
      <rect width="58.835" height="16.81" x="2.582" y=".981" rx="1"/>
      <rect width="16.81" height="8.405" x="23.595" y="17.791"/>
      <path d="M51.9620253 7.28481013C52.5422739 7.28481013 53.0126582 7.7551945 53.0126582 8.33544304 53.0126582 8.91569157 52.5422739 9.38607595 51.9620253 9.38607595 51.3817768 9.38607595 50.9113924 8.91569157 50.9113924 8.33544304 50.9113924 7.7551945 51.3817768 7.28481013 51.9620253 7.28481013M41.4556962 7.28481013C42.0359447 7.28481013 42.5063291 7.7551945 42.5063291 8.33544304 42.5063291 8.91569157 42.0359447 9.38607595 41.4556962 9.38607595 40.8754477 9.38607595 40.4050633 8.91569157 40.4050633 8.33544304 40.4050633 7.7551945 40.8754477 7.28481013 41.4556962 7.28481013"/>
    </g>
  </g>
</svg>
