<svg xmlns="http://www.w3.org/2000/svg" width="128" height="162" viewBox="0 0 128 162">
  <g fill="none" fill-rule="evenodd">
    <circle cx="64" cy="64" r="64" fill="#E5F7F5"/>
    <text fill="#51534A" font-family="IdealSans-Medium, Ideal Sans" font-size="18" font-weight="400">
      <tspan x="29.791" y="150">Grinding</tspan>
    </text>
    <g stroke="#007680" stroke-linecap="round" stroke-linejoin="round" stroke-width="4" transform="translate(31.923 32)">
      <path d="M12.5,61.5 L12.5,41.5 C12.5,39.290861 14.290861,37.5 16.5,37.5 L40.5,37.5 C42.709139,37.5 44.5,39.290861 44.5,41.5 L44.5,61.5"/>
      <line x1="8.5" x2="48.5" y1="61.5" y2="61.5"/>
      <line x1="12.5" x2="44.5" y1="49.5" y2="49.5"/>
      <polyline points="20.5 37.5 16.5 23.5 40.5 23.5 36.5 37.5"/>
      <path d="M28.5,23.5 L28.5,13.5 C28.5,11.290861 30.290861,9.5 32.5,9.5 L44.5,9.5"/>
      <circle cx="50.5" cy="9.5" r="6"/>
      <line x1="28.5" x2="28.5" y1="49.5" y2="53.5"/>
    </g>
  </g>
</svg>
