<svg xmlns="http://www.w3.org/2000/svg" width="128" height="162" viewBox="0 0 128 162">
  <g fill="none" fill-rule="evenodd">
    <circle cx="64" cy="64" r="64" fill="#E5F7F5"/>
    <text fill="#51534A" font-family="IdealSans-Medium, Ideal Sans" font-size="18" font-weight="400">
      <tspan x="24.544" y="150">Packaging</tspan>
    </text>
    <g stroke="#007680" stroke-linecap="round" stroke-linejoin="round" stroke-width="4" transform="translate(31.923 32)">
      <line x1=".269" x2="8.574" y1="34.968" y2="39.192"/>
      <line x1=".524" x2="8.489" y1="23.659" y2="27.939"/>
      <line x1="3.897" x2="8.659" y1="14.277" y2="17.225"/>
      <line x1="28.869" x2="52.254" y1="12.094" y2="24.056"/>
      <path d="M37.9395876,7.44558758 L20.3941228,16.4025616 L20.3657779,16.4025616 C18.3532932,17.4229763 17.1061196,19.4921507 17.1344645,21.7313942 L17.1344645,41.2043092 L17.1061196,41.2043092 C17.0777748,43.4435527 18.3249484,45.5127271 20.337433,46.5331418 L37.8545531,55.4901158 L37.8545531,55.4901158 C39.4702098,56.3121166 41.4260047,56.3121166 43.0700063,55.461771 L60.5871263,46.4764521 L60.5587815,46.4764521 C62.5429213,45.4276925 63.7900949,43.3585181 63.7900949,41.1192746 L63.7900949,21.6180148 L63.76175,21.6180148 C63.76175,19.3504264 62.5145764,17.2812521 60.5304366,16.2608373 L42.9849717,7.27551845 L42.9849717,7.27551845 C41.3409702,6.42517282 39.3851752,6.42517282 37.7411737,7.24717359 L37.9395876,7.44558758 Z"/>
      <polyline points="62.996 18.543 40.519 29.994 18.061 18.514"/>
      <line x1="40.547" x2="40.547" y1="30.008" y2="56.199"/>
      <line x1="52.254" x2="52.254" y1="24.056" y2="32.304"/>
    </g>
  </g>
</svg>
