<svg xmlns="http://www.w3.org/2000/svg" width="128" height="162" viewBox="0 0 128 162">
  <g fill="none" fill-rule="evenodd">
    <circle cx="64" cy="64" r="64" fill="#E5F7F5"/>
    <text fill="#51534A" font-family="IdealSans-Medium, Ideal Sans" font-size="18" font-weight="400">
      <tspan x="29.665" y="150">Roasting</tspan>
    </text>
    <g stroke="#007680" stroke-linecap="round" stroke-linejoin="round" stroke-width="4" transform="translate(36.923 32)">
      <path d="M24.832.363636364L24.832.363636364C27.8574545 3.97090909 28.3229091 9.12 25.9665455 13.2509091L25.9665455 13.2218182C23.8429091 13.3672727 21.952 11.8545455 21.6610909 9.76L21.632 9.76C18.4901818 11.4472727 16.6574545 14.7927273 16.8901818 18.3418182L16.8610909 18.3127273C16.8610909 23.9854545 21.4574545 28.6109091 27.1592727 28.6109091 27.1592727 28.608 27.1592727 28.608 27.1592727 28.608L27.1301818 28.608C32.7738182 28.5207273 37.3410909 23.9534545 37.4283636 18.2807273L37.4283636 18.2516364C38.1265455 9.93163636 32.7447273 2.30981818 24.6574545.186181818L24.832.363636364zM52.8727273 63.6363636L52.8727273 50.5454545 52.8727273 50.5454545C52.8727273 48.1309091 50.8945455 46.1818182 48.5090909 46.1818182L4.87272727 46.1818182 4.84363636 46.1818182C2.42909091 46.1818182.48 48.1309091.48 50.5454545L.48 63.6363636"/>
      <path d="M39.7818182 54.9090909C37.3718484 54.9090909 35.4181818 56.8627575 35.4181818 59.2727273 35.4181818 61.6826971 37.3718484 63.6363636 39.7818182 63.6363636 42.191788 63.6363636 44.1454545 61.6826971 44.1454545 59.2727273 44.1454545 56.8627575 42.191788 54.9090909 39.7818182 54.9090909zM13.6 54.9090909C11.1900302 54.9090909 9.23636364 56.8627575 9.23636364 59.2727273 9.23636364 61.6826971 11.1900302 63.6363636 13.6 63.6363636 16.0099698 63.6363636 17.9636364 61.6826971 17.9636364 59.2727273 17.9636364 56.8627575 16.0099698 54.9090909 13.6 54.9090909z"/>
      <line x1="26.691" x2="26.691" y1="37.469" y2="46.196"/>
      <path d="M35.4181818 37.44L35.3890909 37.44C37.7745455 37.4109091 39.7527273 39.3890909 39.7527273 41.8036364L39.7527273 46.1672727M17.9636364 37.44L17.9345455 37.44C15.52 37.44 13.5709091 39.3890909 13.5709091 41.8036364L13.5709091 46.1672727"/>
    </g>
  </g>
</svg>
