<svg xmlns="http://www.w3.org/2000/svg" width="128" height="162" viewBox="0 0 128 162">
  <g fill="none" fill-rule="evenodd">
    <circle cx="64" cy="64" r="64" fill="#E5F7F5"/>
    <text fill="#51534A" font-family="IdealSans-Medium, Ideal Sans" font-size="18" font-weight="400">
      <tspan x="13.816" y="150">Spray Drying</tspan>
    </text>
    <g stroke="#007680" stroke-linecap="round" stroke-linejoin="round" stroke-width="4" transform="translate(31.923 32)">
      <polyline points="38.128 52.426 40.17 62.638 23.83 62.638 25.872 52.426"/>
      <line x1="32" x2="32" y1="48.34" y2="13.617"/>
      <path d="M42.212766 29.9574468C42.212766 37.8280851 32 48.3404255 32 48.3404255 32 48.3404255 21.787234 37.8280851 21.787234 29.9574468 21.787234 22.0595745 26.3353191 19.7446809 32 19.7446809 37.6374468 19.7446809 42.212766 22.0595745 42.212766 29.9574468zM45.2765957 13.6170213L45.2493617 13.6170213C45.7940426 13.5897872 46.2570213 14.052766 46.2570213 14.6246809M44.2553191 14.6246809L44.2553191 14.6246809C44.2280851 14.052766 44.6910638 13.5897872 45.2629787 13.5897872M45.2765957 15.6595745L45.2493617 15.6595745C44.6774468 15.6323404 44.2144681 15.1965957 44.2144681 14.6246809M46.2978723 14.6246809L46.2978723 14.6246809C46.2978723 15.1693617 45.8348936 15.6459574 45.2765957 15.6459574M32 1.36170213L31.972766 1.36170213C32.5174468 1.33446809 32.9804255 1.79744681 32.9804255 2.3693617"/>
      <path d="M30.9787234 2.38297872L30.9787234 2.38297872C30.9514894 1.81106383 31.4144681 1.34808511 31.986383 1.34808511M32 3.40425532L31.972766 3.40153191C31.4008511 3.37429787 30.9378723 2.93855319 30.9378723 2.3666383"/>
      <path d="M33.0076596 2.38297872L33.0049362 2.38297872C33.0049362 2.92765957 32.5419574 3.40425532 31.9836596 3.40425532M51.4042553 25.8723404L51.3770213 25.8723404C51.9217021 25.8451064 52.3846809 26.3080851 52.3846809 26.88"/>
      <path d="M50.3829787 26.893617L50.3829787 26.893617C50.3557447 26.3217021 50.8187234 25.8587234 51.3906383 25.8587234M51.4042553 27.9148936L51.3770213 27.9148936C50.8051064 27.8876596 50.3421277 27.4519149 50.3421277 26.88M52.4255319 26.893617L52.4255319 26.893617C52.4255319 27.4382979 51.9625532 27.9148936 51.4042553 27.9148936M55.4893617 5.44680851L55.4621277 5.44680851C56.0068085 5.41957447 56.4697872 5.88255319 56.4697872 6.45446809"/>
      <path d="M54.4680851 6.46808511L54.4680851 6.46808511C54.4408511 5.89617021 54.9038298 5.43319149 55.4757447 5.43319149M55.4893617 7.4893617L55.4621277 7.4866383C54.8902128 7.45940426 54.427234 7.02365957 54.427234 6.45174468M56.5106383 6.46808511L56.5106383 6.46808511C56.5106383 7.01276596 56.0476596 7.4893617 55.4893617 7.4893617M61.6170213 25.8723404L61.5897872 25.8723404C62.1344681 25.8451064 62.5974468 26.3080851 62.5974468 26.88"/>
      <path d="M60.5957447 26.893617L60.5957447 26.893617C60.5685106 26.3217021 61.0314894 25.8587234 61.6034043 25.8587234M61.6170213 27.9148936L61.5897872 27.9148936C61.0178723 27.8876596 60.5548936 27.4519149 60.5548936 26.88M62.6382979 26.893617L62.6382979 26.893617C62.6382979 27.4382979 62.1753191 27.9148936 61.6170213 27.9148936M18.7097872 13.6170213L18.6825532 13.6170213C18.1106383 13.6170213 17.6476596 14.052766 17.6476596 14.6246809M19.7446809 14.6246809L19.7446809 14.6246809C19.7446809 14.052766 19.2817021 13.6034043 18.7234043 13.6034043M18.7097872 15.6595745L18.6825532 15.6595745C19.227234 15.6595745 19.6902128 15.1965957 19.6902128 14.6246809M17.7021277 14.6246809L17.7021277 14.5974468C17.6748936 15.1421277 18.1378723 15.6051064 18.7097872 15.6051064M12.5957447 25.8723404L12.5685106 25.8723404C11.9965957 25.8723404 11.533617 26.3080851 11.533617 26.88M13.6170213 26.893617L13.6170213 26.893617C13.6170213 26.3217021 13.1540426 25.8723404 12.5957447 25.8723404M12.5957447 27.9148936L12.5685106 27.9148936C13.1131915 27.9148936 13.5761702 27.4519149 13.5761702 26.88"/>
      <path d="M11.5744681 26.893617L11.5744681 26.893617C11.5744681 27.4382979 12.0102128 27.9012766 12.5821277 27.9012766M8.49702128 5.44680851L8.46978723 5.44680851C7.89787234 5.44680851 7.43489362 5.88255319 7.43489362 6.45446809M9.53191489 6.46808511L9.53191489 6.46808511C9.53191489 5.89617021 9.06893617 5.44680851 8.5106383 5.44680851M8.49702128 7.4893617L8.46978723 7.4866383C9.01446809 7.4866383 9.47744681 7.02365957 9.47744681 6.45174468"/>
      <path d="M7.4893617 6.46808511L7.4893617 6.46808511C7.4893617 7.01276596 7.92510638 7.47574468 8.49702128 7.47574468M2.38297872 25.8723404L2.35574468 25.8723404C1.78382979 25.8723404 1.32085106 26.3080851 1.32085106 26.88M3.40425532 26.893617L3.40425532 26.893617C3.40425532 26.3217021 2.9412766 25.8723404 2.38297872 25.8723404M2.38297872 27.9148936L2.35574468 27.9148936C2.90042553 27.9148936 3.36340426 27.4519149 3.36340426 26.88"/>
      <path d="M1.36170213,26.893617 L1.36170213,26.893617 C1.36170213,27.4382979 1.79744681,27.9012766 2.3693617,27.9012766"/>
    </g>
  </g>
</svg>
