<svg xmlns="http://www.w3.org/2000/svg" width="128" height="158" viewBox="0 0 128 158">
  <g fill="none" fill-rule="evenodd">
    <circle cx="64" cy="64" r="64" fill="#E5F7F5"/>
    <text fill="#51534A" font-family="IdealSans-Medium, Ideal Sans" font-size="18" font-weight="400">
      <tspan x="16.642" y="150">Sublimation</tspan>
    </text>
    <g stroke="#007680" stroke-linecap="round" stroke-linejoin="round" stroke-width="4" transform="translate(31.923 32)">
      <line x1="32" x2="32" y1="53.818" y2="28.364"/>
      <polyline points="21.394 38.97 32 28.364 42.606 38.97"/>
      <path d="M46.8484848,47.6060606 L50.030303,47.6060606 L50.030303,47.6060606 C57.6383838,47.6060606 63.8040404,41.440404 63.8323232,33.8323232 C63.8323232,26.1959596 57.6666667,20.030303 50.0585859,20.0020202 C47.230303,19.9737374 44.4868687,20.8505051 42.1676768,22.4343434 L42.1676768,22.4343434 C39.989899,10.8949495 28.8888889,3.31515152 17.3777778,5.49292929 C5.83838384,7.64242424 -1.74141414,18.7292929 0.436363636,30.240404 C2.02020202,38.7252525 8.58181818,45.3717172 17.0666667,47.0969697"/>
    </g>
  </g>
</svg>
